<svg xmlns="http://www.w3.org/2000/svg" fill="none" viewBox="0 0 191 40">
  <path fill="#fff" d="M98.1949 32.4085h6.4161l-6.3213-8.6283 5.2503-6.1519 6.167 14.5274-.506 1.2958c-.253.6743-.559 1.1905-.917 1.5487-.358.3793-.937.5689-1.738.5689-.253 0-.537-.0316-.854-.0948-.295-.0421-.568-.1053-.821-.1896l-.569 4.3616c.379.1053.822.1896 1.327.2528.527.0632 1.033.0948 1.517.0948.991 0 1.844-.1159 2.561-.3476.737-.2318 1.369-.5795 1.896-1.043.548-.4425 1.011-.9903 1.391-1.6435.4-.6321.758-1.3591 1.074-2.1808l7.049-18.1101h-5.5l-3.129 10.1139h-.095l-3.508-10.1139H98.0685l-5.0255 6.3844h-.0948V8.51465h-5.2151V32.4085h5.2151v-7.5537h.0948l5.1519 7.5537Zm-12.1516-7.933c0 1.0957-.1686 2.1492-.5057 3.1606-.3371 1.0114-.8323 1.9068-1.4855 2.6865-.6322.7585-1.4118 1.3695-2.3389 1.8331-.9271.4635-1.9807.6953-3.1607.6953-1.0535 0-2.0544-.2107-3.0026-.6321-.9272-.4425-1.6436-1.0641-2.1493-1.8647h-.0632v2.0543h-4.7726V8.51465h5.1835V18.344h.0632c.4425-.5268 1.0641-1.0114 1.8648-1.4539.8007-.4424 1.7805-.6637 2.9394-.6637 1.1379 0 2.1598.2213 3.0659.6637.9271.4425 1.7067 1.043 2.3389 1.8016.6532.7585 1.1484 1.6435 1.4855 2.6548.3582.9904.5373 2.0333.5373 3.129Zm-4.9939 0c0-.5057-.0842-1.0008-.2528-1.4855-.1475-.4846-.3793-.906-.6954-1.2642-.316-.3793-.7058-.6848-1.1694-.9165-.4636-.2318-1.0009-.3477-1.612-.3477-.5899 0-1.1167.1159-1.5803.3477-.4636.2317-.8639.5372-1.201.9165-.3161.3793-.569.8112-.7586 1.2958-.1686.4847-.2529.9798-.2529 1.4855s.0843 1.0009.2529 1.4855c.1896.4846.4425.9165.7586 1.2958.3371.3793.7374.6848 1.201.9166s.9904.3476 1.5803.3476c.6111 0 1.1484-.1158 1.612-.3476s.8534-.5373 1.1694-.9166c.3161-.3793.5479-.8112.6954-1.2958.1686-.5057.2528-1.0114.2528-1.5171Zm-19.961 7.9331v-2.1808h-.0632c-.1896.3582-.4425.6953-.7586 1.0114-.295.316-.6532.5899-1.0746.8217-.4003.2318-.8534.4214-1.3591.5689-.4846.1475-1.0009.2213-1.5487.2213-1.0536 0-1.9491-.1897-2.6866-.5689-.7164-.3793-1.3064-.8639-1.77-1.4539-.4425-.611-.7691-1.2958-.9798-2.0544-.1896-.7796-.2844-1.5697-.2844-2.3704V16.669h5.2151v8.5335c0 .4425.0316.8639.0948 1.2642.0632.4004.1791.7586.3477 1.0746.1896.3161.4319.5689.7269.7585.295.1686.6848.2529 1.1695.2529.906 0 1.5909-.3371 2.0544-1.0114.4847-.6742.727-1.4644.727-2.3704V16.669h5.1835v15.7396h-4.9939ZM49.7638 16.9218c0 1.3063-.2423 2.4125-.7269 3.3185-.4847.885-1.1379 1.6014-1.9596 2.1492-.8218.5479-1.77.9482-2.8446 1.201-1.0747.2529-2.1914.3793-3.3504.3793h-2.6865v8.4387H32.791V10.0317h8.2178c1.2221 0 2.3599.1264 3.4135.3793 1.0746.2318 2.0018.6216 2.7814 1.1694.8007.5268 1.4223 1.2326 1.8648 2.1176.4636.8639.6953 1.9385.6953 3.2238Zm-5.4047.0316c0-.5268-.1054-.9587-.3161-1.2959-.2107-.3371-.4952-.6005-.8534-.7901-.3582-.1896-.7691-.3161-1.2326-.3793-.4425-.0632-.9061-.0948-1.3907-.0948h-2.3705v5.2781h2.2757c.5057 0 .9903-.0421 1.4539-.1264.4635-.0843.8744-.2318 1.2326-.4425.3793-.2107.6743-.4846.885-.8217.2107-.3582.3161-.8007.3161-1.3274Zm143.5699 6.9278c-.064-1.39-.516-2.5378-1.359-3.4434-.821-.9267-2.001-1.39-3.538-1.39-.716 0-1.38.1368-1.99.4106-.611.2528-1.148.6108-1.612 1.0741-.463.4423-.832.9583-1.105 1.548-.274.5686-.432 1.1688-.474 1.8007h10.078Zm2.179.695v.4738c0 .1685-.01.3475-.031.5371h-12.258c.021.7371.169 1.4321.442 2.085.274.6528.653 1.2215 1.138 1.7059.484.4844 1.053.874 1.706 1.1688.653.2738 1.358.4107 2.116.4107 1.117 0 2.075-.2527 2.875-.7582.822-.5265 1.443-1.1267 1.864-1.8006l1.611 1.2636c-.884 1.1162-1.864 1.9165-2.938 2.4009-1.053.4844-2.19.7266-3.412.7266-1.095 0-2.116-.1895-3.064-.5686-.927-.4002-1.727-.9478-2.401-1.6428-.674-.695-1.211-1.5163-1.611-2.4641-.379-.9477-.569-1.9797-.569-3.0959 0-1.1162.19-2.1481.569-3.0959.379-.9477.905-1.7691 1.579-2.4641.674-.695 1.464-1.232 2.37-1.6111.905-.4002 1.885-.6002 2.938-.6002 1.158 0 2.18.2 3.064.6002.885.3791 1.622.9056 2.212 1.5795.589.6529 1.032 1.4216 1.327 2.3062.316.8845.473 1.8323.473 2.8432ZM167.085 20.88c0-.4001-.01-.9161-.031-1.5479-.021-.6318-.053-1.2005-.095-1.7059h2.053c.043.4001.074.8424.095 1.3268.021.4844.032.8845.032 1.2004h.063c.421-.8635 1.053-1.5585 1.896-2.085.842-.5475 1.79-.8213 2.843-.8213.274 0 .516.0105.726.0316.232.021.464.0631.695.1263l-.284 2.0218c-.126-.0421-.337-.0842-.632-.1263s-.589-.0632-.884-.0632c-.569 0-1.117.1053-1.643.3159-.527.2106-.99.5476-1.39 1.0109-.379.4423-.695 1.0215-.948 1.7375-.232.695-.347 1.5374-.347 2.5273v7.5818h-2.149V20.88Zm-3.36 4.1384c0 1.1162-.2 2.1482-.6 3.0959-.379.9478-.916 1.7691-1.611 2.4641-.695.695-1.527 1.2426-2.496 1.6428-.969.3791-2.032.5686-3.191.5686-1.137 0-2.19-.1895-3.159-.5686-.969-.4002-1.801-.9478-2.496-1.6428-.695-.695-1.242-1.5163-1.642-2.4641-.38-.9477-.569-1.9797-.569-3.0959 0-1.1162.189-2.1481.569-3.0959.4-.9477.947-1.7691 1.642-2.4641.695-.695 1.527-1.232 2.496-1.6111.969-.4002 2.022-.6002 3.159-.6002 1.159 0 2.222.2 3.191.6002.969.3791 1.801.9161 2.496 1.6111.695.695 1.232 1.5164 1.611 2.4641.4.9478.6 1.9797.6 3.0959Zm-2.274 0c0-.8213-.137-1.59-.411-2.3061-.253-.7371-.621-1.3689-1.106-1.8955-.484-.5475-1.074-.9793-1.769-1.2952-.695-.3159-1.474-.4738-2.338-.4738-.863 0-1.642.1579-2.337.4738-.674.3159-1.254.7477-1.738 1.2952-.484.5266-.864 1.1584-1.137 1.8955-.253.7161-.379 1.4848-.379 2.3061 0 .8214.126 1.6006.379 2.3378.273.716.653 1.3478 1.137 1.8954.484.5265 1.064.9477 1.738 1.2637.695.2948 1.474.4422 2.337.4422.864 0 1.643-.1474 2.338-.4422.695-.316 1.285-.7372 1.769-1.2637.485-.5476.853-1.1794 1.106-1.8954.274-.7372.411-1.5164.411-2.3378Zm-14.564 3.7908c-.379.5687-.843 1.1057-1.39 1.6112-.527.5054-1.148.9477-1.864 1.3268-.695.3791-1.475.6739-2.338.8845-.842.2317-1.769.3475-2.78.3475-1.685 0-3.244-.2948-4.676-.8845-1.432-.5897-2.664-1.4006-3.696-2.4325-1.032-1.0531-1.843-2.2956-2.433-3.7277-.568-1.4322-.853-3.0012-.853-4.7071 0-1.7059.295-3.2749.885-4.707.59-1.4322 1.401-2.6642 2.433-3.6962 1.053-1.053 2.285-1.8744 3.696-2.4641 1.432-.58967 2.98-.88451 4.644-.88451.821 0 1.622.08424 2.401.25272.8.16849 1.548.41069 2.243.72659.695.2949 1.327.6634 1.895 1.1057.569.4212 1.043.9056 1.422 1.4532l-1.895 1.39c-.232-.3581-.548-.7161-.948-1.0741-.379-.3581-.832-.674-1.359-.9478-.526-.2737-1.105-.4949-1.737-.6634-.611-.1684-1.274-.2527-1.991-.2527-1.453 0-2.759.2633-3.917.7898-1.137.5265-2.106 1.2426-2.906 2.1482-.801.8845-1.412 1.9165-1.833 3.0959-.421 1.1794-.632 2.4219-.632 3.7277s.211 2.5483.632 3.7277c.443 1.1794 1.064 2.2219 1.864 3.1275.801.8846 1.769 1.5901 2.907 2.1166 1.158.5265 2.453.7898 3.885.7898 1.285 0 2.507-.2633 3.665-.7898 1.159-.5265 2.127-1.3689 2.907-2.5273l1.769 1.1373Z"/>
  <path fill="#fff" fill-rule="evenodd" d="M10.6111 0 8.04619 3.36072 4.74303 1.28171l-.90926 3.50092L0 3.97795l3.48718 5.69218C5.38825 8.00196 7.88021 6.9905 10.6078 6.98968v.00005h.0067v-.00005c2.7276.00083 5.2195 1.01229 7.1206 2.68046l3.4871-5.69219-3.8337.80468-.9093-3.50092-3.3032 2.07901L10.6145.00440716V.00436059l-.0007-.00084932L10.6111 0Zm0 9.66348c-4.48883 0-8.128 3.63622-8.128 8.12202 0 1.9412.68217 3.7214 1.81573 5.1162l-3.10947 9.502H20.0329l-3.1095-9.502c1.1336-1.3948 1.8157-3.175 1.8157-5.1162 0-4.4858-3.6391-8.12202-8.128-8.12202Zm4.3 8.12212c0-2.3728-1.9251-4.2966-4.3-4.2966-2.37491 0-4.29992 1.9238-4.29992 4.2966 0 1.6444.92451 3.0734 2.28349 3.7958l.13957.0742-2.26545 6.9228h8.28461l-2.2654-6.9228.1396-.0742c1.3589-.7224 2.2835-2.1514 2.2835-3.7958Z" clip-rule="evenodd"/>
</svg>
