<svg xmlns="http://www.w3.org/2000/svg" fill="none" viewBox="0 0 122 48">
  <path fill="#fff" d="M98.2233 32.4128h6.4177l-6.3229-8.6311 5.2509-6.1539 6.169 14.5321-.506 1.2963c-.253.6744-.558 1.1908-.917 1.5491-.358.3794-.937.5691-1.738.5691-.253 0-.538-.0316-.854-.0948-.295-.0422-.569-.1054-.822-.1897l-.569 4.3629c.379.1054.822.1897 1.328.253.527.0632 1.033.0948 1.517.0948.991 0 1.845-.1159 2.561-.3478.738-.2318 1.37-.5796 1.897-1.0433.548-.4426 1.012-.9906 1.391-1.644.401-.6323.759-1.3595 1.075-2.1815l7.05-18.1158h-5.501l-3.13 10.117h-.095l-3.509-10.117H98.0968l-5.0269 6.3863h-.0948V8.51129h-5.2166V32.4128h5.2166v-7.5562h.0948l5.1534 7.5562Zm-12.1551-7.9356c0 1.0961-.1686 2.1499-.5058 3.1616-.3373 1.0117-.8326 1.9075-1.486 2.6874-.6323.7587-1.4121 1.37-2.3395 1.8337-.9274.4637-1.9813.6955-3.1616.6955-1.0539 0-2.055-.2108-3.0035-.6323-.9274-.4426-1.644-1.0644-2.1499-1.8653h-.0632v2.055h-4.774V8.51129h5.185v9.83251h.0632c.4427-.5269 1.0644-1.0117 1.8654-1.4543.8009-.4427 1.781-.664 2.9402-.664 1.1382 0 2.1604.2213 3.0668.664.9274.4426 1.7072 1.0433 2.3395 1.8021.6534.7587 1.1487 1.644 1.486 2.6557.3583.9906.5374 2.0339.5374 3.1299Zm-4.9953 0c0-.5058-.0843-1.0011-.2529-1.4859-.1475-.4848-.3794-.9063-.6955-1.2646-.3162-.3794-.7061-.685-1.1698-.9169-.4637-.2318-1.0012-.3478-1.6124-.3478-.5902 0-1.1171.116-1.5808.3478-.4637.2319-.8642.5375-1.2014.9169-.3162.3794-.5691.8114-.7588 1.2962-.1686.4848-.2529.9801-.2529 1.486 0 .5058.0843 1.0011.2529 1.4859.1897.4848.4426.9169.7588 1.2962.3372.3794.7377.6851 1.2014.9169.4637.2319.9906.3478 1.5808.3478.6112 0 1.1487-.1159 1.6124-.3478.4637-.2318.8536-.5375 1.1698-.9169.3161-.3793.548-.8114.6955-1.2962.1686-.5058.2529-1.0117.2529-1.5176Zm-19.9667 7.9356v-2.1814h-.0632c-.1897.3583-.4426.6955-.7588 1.0117-.2951.3161-.6534.5901-1.0749.822-.4005.2318-.8536.4215-1.3595.5691-.4848.1475-1.0012.2213-1.5492.2213-1.0538 0-1.9496-.1897-2.6873-.5691-.7166-.3794-1.3068-.8642-1.7705-1.4543-.4426-.6113-.7693-1.2963-.9801-2.0551-.1897-.7798-.2845-1.5702-.2845-2.3711v-9.7377h5.2166v8.5363c0 .4426.0316.8641.0948 1.2646.0633.4005.1792.7588.3478 1.0749.1897.3162.4321.5691.7272.7588.2951.1686.685.2529 1.1698.2529.9063 0 1.5913-.3372 2.055-1.0117.4848-.6744.7271-1.4648.7271-2.3712v-8.5046h5.185v15.7446h-4.9953ZM49.7784 16.9211c0 1.3068-.2423 2.4133-.7271 3.3196-.4848.8853-1.1382 1.6019-1.9602 2.1499-.822.548-1.7705.9485-2.8454 1.2014-1.075.2529-2.192.3794-3.3513.3794h-2.6873v8.4414h-5.4063v-22.384h8.2201c1.2225 0 2.3606.1265 3.4145.3794 1.0749.2319 2.0023.6218 2.7822 1.1698.8009.5269 1.4227 1.233 1.8653 2.1183.4637.8641.6955 1.9391.6955 3.2248Zm-5.4063.0316c0-.5269-.1053-.959-.3161-1.2962-.2108-.3373-.4953-.6007-.8536-.7904-.3583-.1897-.7694-.3162-1.2331-.3794-.4426-.0633-.9063-.0949-1.391-.0949h-2.3712v5.2799h2.2763c.5059 0 .9906-.0422 1.4543-.1265.4637-.0843.8747-.2319 1.233-.4426.3794-.2108.6745-.4848.8853-.822.2108-.3584.3161-.801.3161-1.3279Z"/>
  <path fill="#C8FF00" fill-rule="evenodd" d="M10.6133 0 8.04785 3.36154 4.74401 1.28202l-.90944 3.50177L0 3.97891l3.4879 5.69356c1.90147-1.66858 4.39394-2.68028 7.1221-2.6811v.00005h.0067v-.00005c2.7281.00083 5.2206 1.01254 7.122 2.68111l3.4879-5.69357-3.8345.80488-.9095-3.50177-3.3038 2.07952L10.6167.00440823V.00436164L10.616.00351212 10.6133 0Zm0 9.66582c-4.48973 0-8.12965 3.63708-8.12965 8.12398 0 1.9417.6823 3.7224 1.81611 5.1175l-3.11012 9.5043H20.0371l-3.1102-9.5043c1.1338-1.3951 1.8161-3.1758 1.8161-5.1175 0-4.4869-3.6399-8.12398-8.1297-8.12398Zm4.3009 8.12408c0-2.3734-1.9254-4.2976-4.3008-4.2976h-.0001c-2.37537 0-4.30079 1.9242-4.30079 4.2976 0 1.6448.92471 3.0742 2.28398 3.7967l.13959.0742-2.26592 6.9245h8.28634l-2.2659-6.9245.1396-.0742c1.3593-.7225 2.284-2.1519 2.284-3.7967Z" clip-rule="evenodd"/>
</svg>
